<?xml version="1.0" encoding="utf-8"?>
<!-- Generator: Adobe Illustrator 21.1.0, SVG Export Plug-In . SVG Version: 6.00 Build 0)  -->
<svg version="1.1" id="Layer_1" xmlns="http://www.w3.org/2000/svg" xmlns:xlink="http://www.w3.org/1999/xlink" x="0px" y="0px"
	 viewBox="0 0 25.2 95.7" style="enable-background:new 0 0 25.2 95.7;" xml:space="preserve">
<style type="text/css">
	.st0{fill:#FCF16C;enable-background:new    ;}
	.st1{fill:#4B98FC;enable-background:new    ;}
	.st2{fill:#FC604E;enable-background:new    ;}
	.st3{clip-path:url(#SVGID_2_);fill:#383547;enable-background:new    ;}
	.st4{clip-path:url(#SVGID_4_);fill:#4F9463;enable-background:new    ;}
</style>
<path class="st0" d="M25,0c0,0-1.3,13.4-7.5,14.2S7.6,16.1,8.7,19s3.4,2.4,3.3,5s1,1,2.9,2.4s0.4,7.7,4.1,9s4.7,2.1,5.1,4.3
	c0.4,2.1,1,8.1,1,8.1"/>
<path class="st1" d="M25,16.7c0,0,0.1,6.5-1.5,8.9c-2.2,3.3-13.6,3.7-14.4,8.1c-0.2,1,0.2,4.2-1,5C4,41.3-6.3,44,5.5,51.1
	C20.3,60.2,25.1,70,25.1,70"/>
<path class="st2" d="M20.6,93.2c-1.6-1.6-2.1-5.4-2-7.3c0.2-5,1.6-5.3,1.4-7.5s-4.6-7.6-4.8-10.5c-0.1-2,2.4-6.8,5.3-10.2
	s4.6-11.6,4.6-11.6L25,93.8C25,93.8,25.7,98.3,20.6,93.2z"/>
<g>
	<defs>
		<path id="SVGID_1_" d="M20.6,93.2c-1.6-1.6-2.1-5.4-2-7.3c0.2-5,1.6-5.3,1.4-7.5s-4.6-7.6-4.8-10.5c-0.1-2,2.4-6.8,5.3-10.2
			s4.6-11.6,4.6-11.6L25,93.8C25,93.8,25.7,98.3,20.6,93.2z"/>
	</defs>
	<clipPath id="SVGID_2_">
		<use xlink:href="#SVGID_1_"  style="overflow:visible;"/>
	</clipPath>
	<path class="st3" d="M25.1,16.7c0,0,0.1,6.5-1.5,8.9c-2.2,3.3-13.6,3.7-14.4,8.1c-0.2,1,0.2,4.2-1,5C4.1,41.3-6.2,44,5.6,51.1
		C20.4,60.2,25.2,70,25.2,70"/>
</g>
<g>
	<defs>
		<path id="SVGID_3_" d="M25,16.7c0,0,0.1,6.5-1.5,8.9c-2.2,3.3-13.6,3.7-14.4,8.1c-0.2,1,0.2,4.2-1,5C4,41.3-6.3,44,5.5,51.1
			C20.3,60.2,25.1,70,25.1,70"/>
	</defs>
	<clipPath id="SVGID_4_">
		<use xlink:href="#SVGID_3_"  style="overflow:visible;"/>
	</clipPath>
	<path class="st4" d="M25,0c0,0-1.3,13.4-7.5,14.2S7.6,16.1,8.7,19s3.4,2.4,3.3,5s1,1,2.9,2.4s0.4,7.7,4.1,9s4.7,2.1,5.1,4.3
		c0.4,2.1,1,8.1,1,8.1"/>
</g>
</svg>
