<?xml version="1.0" encoding="utf-8"?>
<!-- Generator: Adobe Illustrator 21.1.0, SVG Export Plug-In . SVG Version: 6.00 Build 0)  -->
<svg version="1.1" id="Layer_1" xmlns="http://www.w3.org/2000/svg" xmlns:xlink="http://www.w3.org/1999/xlink" x="0px" y="0px"
	 viewBox="0 0 100 72.8" style="enable-background:new 0 0 100 72.8;" xml:space="preserve">
<style type="text/css">
	.st0{fill:#4B98FC;}
	.st1{fill:#FC604E;}
	.st2{clip-path:url(#SVGID_2_);}
	.st3{fill:#383547;}
	.st4{clip-path:url(#SVGID_4_);fill:#FC2222;}
</style>
<g>
	<path class="st0" d="M48.4,49.4v-6.3h-5.7v6.3h-3.8V33.9h3.8V40h5.7v-6.1h3.8v15.5H48.4z"/>
	<path class="st0" d="M55.3,33.9H65v3h-5.8V40h5.6v3h-5.6v3.3H65v3h-9.7V33.9z"/>
	<path class="st0" d="M79.3,38.8c0,1-0.3,1.9-0.9,2.7S77,42.9,76,43.3l5.1,6.1h-4.7L72.2,44h-0.7v5.4h-3.8V33.9h4.9
		c1,0,1.9,0.1,2.7,0.3c0.8,0.2,1.5,0.5,2.1,0.9s1.1,0.9,1.4,1.5C79.2,37.3,79.3,38,79.3,38.8z M75.7,38.9c0-0.7-0.3-1.2-0.8-1.6
		c-0.5-0.3-1.3-0.5-2.3-0.5h-1.1v4.4h0.9c1,0,1.8-0.2,2.4-0.6C75.4,40.2,75.7,39.6,75.7,38.9z"/>
	<path class="st0" d="M82.5,33.9h9.7v3h-5.8V40H92v3h-5.6v3.3h5.9v3h-9.7L82.5,33.9L82.5,33.9z"/>
</g>
<circle class="st1" cx="69.2" cy="45.4" r="27.4"/>
<path class="st0" d="M24.6,10v5.5h-3.8V10l-5-9.7h4l2.9,6.4l2.9-6.4h4L24.6,10z"/>
<path class="st0" d="M45.4,7.9c0,1.1-0.2,2.1-0.5,3.1c-0.4,1-0.9,1.8-1.5,2.5c-0.7,0.7-1.5,1.3-2.4,1.7c-1,0.4-2.1,0.6-3.3,0.6
	s-2.3-0.2-3.3-0.6c-1-0.4-1.8-1-2.4-1.7c-0.7-0.7-1.2-1.6-1.5-2.5C30.2,10,30,9,30,7.9s0.2-2.1,0.5-3.1S31.3,3,32,2.3
	s1.5-1.3,2.4-1.7c1-0.4,2.1-0.6,3.3-0.6S40,0.2,41,0.6s1.8,1,2.4,1.7c0.7,0.7,1.2,1.6,1.5,2.5C45.2,5.8,45.4,6.8,45.4,7.9z
	 M37.6,12.8c0.7,0,1.2-0.1,1.7-0.4c0.5-0.2,0.9-0.6,1.3-1c0.3-0.4,0.6-1,0.8-1.6s0.3-1.3,0.3-2s-0.1-1.4-0.3-2S41,4.7,40.6,4.2
	c-0.3-0.4-0.8-0.8-1.3-1c-0.4-0.1-1-0.2-1.7-0.2s-1.3,0.1-1.8,0.4c-0.5,0.2-0.9,0.6-1.3,1c-0.3,0.4-0.6,1-0.8,1.6s-0.3,1.3-0.3,2
	s0.1,1.4,0.3,2s0.4,1.1,0.8,1.6c0.3,0.4,0.8,0.8,1.3,1C36.4,12.7,37,12.8,37.6,12.8z"/>
<path class="st0" d="M56.8,0.3h3.8V10c0,1.8-0.6,3.2-1.7,4.2c-1.1,1-2.7,1.5-4.7,1.5s-3.6-0.5-4.7-1.5c-1.1-1-1.7-2.4-1.7-4.2V0.3
	h3.8v9.9c0,0.9,0.2,1.5,0.7,2s1.1,0.7,2,0.7s1.6-0.2,2-0.7c0.5-0.5,0.7-1.1,0.7-2V0.3H56.8z"/>
<path class="st0" d="M10.8,29.7H5.2l-0.9,2.9H0.5L6,17.8h4l5.5,14.7h-3.7L10.8,29.7z M6.1,26.8h3.8L8,20.6L6.1,26.8z"/>
<path class="st0" d="M28.3,22.5c0,1-0.3,1.9-0.8,2.6c-0.6,0.7-1.3,1.3-2.3,1.7l4.8,5.8h-4.5l-4.1-5.1h-0.7v5.1h-3.6V17.8h4.7
	c0.9,0,1.8,0.1,2.5,0.3c0.8,0.2,1.5,0.5,2,0.9c0.6,0.4,1,0.9,1.4,1.4C28.1,21,28.3,21.7,28.3,22.5z M24.8,22.5
	c0-0.7-0.3-1.2-0.8-1.5s-1.2-0.5-2.2-0.5h-1v4.1h0.9c1,0,1.7-0.2,2.3-0.6C24.5,23.8,24.8,23.2,24.8,22.5z"/>
<path class="st0" d="M31.3,17.8h9.2v2.9H35v3h5.3v2.9H35v3.1h5.6v2.9h-9.3V17.8z"/>
<circle class="st1" cx="95.5" cy="52.9" r="4.5"/>
<g>
	<defs>
		<circle id="SVGID_1_" cx="69.4" cy="45.6" r="27.4"/>
	</defs>
	<clipPath id="SVGID_2_">
		<use xlink:href="#SVGID_1_"  style="overflow:visible;"/>
	</clipPath>
	<g class="st2">
		<path class="st3" d="M48.5,49.4v-6.3h-5.7v6.3H39V33.9h3.8V40h5.7v-6.1h3.8v15.5H48.5z"/>
		<path class="st3" d="M55.4,33.9h9.7v3h-5.8V40h5.6v3h-5.6v3.3h5.8v3h-9.7V33.9z"/>
		<path class="st3" d="M79.4,38.8c0,1-0.3,1.9-0.9,2.7c-0.6,0.8-1.4,1.4-2.4,1.8l5.1,6.1h-4.7L72.3,44h-0.7v5.4h-3.8V33.9h4.9
			c1,0,1.9,0.1,2.7,0.3s1.5,0.5,2.1,0.9c0.6,0.4,1.1,0.9,1.4,1.5C79.3,37.3,79.4,38,79.4,38.8z M75.8,38.9c0-0.7-0.3-1.2-0.8-1.6
			c-0.5-0.3-1.3-0.5-2.3-0.5h-1.1v4.4h0.9c1,0,1.8-0.2,2.4-0.6C75.5,40.2,75.8,39.6,75.8,38.9z"/>
		<path class="st3" d="M82.6,33.9h9.7v3h-5.8V40h5.6v3h-5.6v3.3h5.9v3h-9.7L82.6,33.9L82.6,33.9z"/>
	</g>
</g>
<g>
	<defs>
		<circle id="SVGID_3_" cx="69.2" cy="45.6" r="27.4"/>
	</defs>
	<clipPath id="SVGID_4_">
		<use xlink:href="#SVGID_3_"  style="overflow:visible;"/>
	</clipPath>
	<circle class="st4" cx="95.5" cy="52.9" r="4.5"/>
</g>
</svg>
