<?xml version="1.0" encoding="utf-8"?>
<!-- Generator: Adobe Illustrator 21.1.0, SVG Export Plug-In . SVG Version: 6.00 Build 0)  -->
<svg version="1.1" id="Layer_1" xmlns="http://www.w3.org/2000/svg" xmlns:xlink="http://www.w3.org/1999/xlink" x="0px" y="0px"
	 viewBox="0 0 52.8 100" style="enable-background:new 0 0 52.8 100;" xml:space="preserve">
<style type="text/css">
	.st0{fill:none;}
	.st1{fill:none;stroke:#EF422B;stroke-miterlimit:10;}
	.st2{opacity:0.8;}
	.st3{fill:#426DB5;}
	.st4{fill:url(#SVGID_1_);}
	.st5{fill:url(#SVGID_2_);}
</style>
<pattern  width="32.1" height="27" patternUnits="userSpaceOnUse" id="New_Pattern_Swatch_10" viewBox="0 -27 32.1 27" style="overflow:visible;">
	<g>
		<rect x="0" y="-27" class="st0" width="32.1" height="27"/>
		<polyline class="st1" points="7.6,-3.1 10.1,-7.9 12.8,-3.6 		"/>
		<polyline class="st1" points="14.3,-21.1 16.8,-26 19.4,-21.7 		"/>
		<polyline class="st1" points="0.4,-13.2 2.9,-18 5.6,-13.7 		"/>
		<polyline class="st1" points="26.5,-0.2 29,-5.1 31.7,-0.8 		"/>
		<polyline class="st1" points="13.2,-10.4 15.7,-15.2 18.4,-10.9 		"/>
		<polyline class="st1" points="26.5,-20.1 29,-25 31.7,-20.6 		"/>
	</g>
</pattern>
<pattern  width="337.1" height="30" patternUnits="userSpaceOnUse" id="New_Pattern_Swatch_7" viewBox="0 -36.3 337.1 30" style="overflow:visible;">
	<g>
		<rect x="0" y="-36.3" class="st0" width="337.1" height="30"/>
		<g class="st2">
			<path class="st3" d="M337.1,0c-3.8,0-5.8-1.5-7.6-2.9c-1.8-1.4-3.5-2.7-7-2.7s-5.2,1.3-7,2.7c-1.9,1.4-3.8,2.9-7.6,2.9
				c-3.8,0-5.8-1.5-7.6-2.9c-1.8-1.4-3.5-2.7-7-2.7c-3.5,0-5.2,1.3-7,2.7c-1.9,1.4-3.8,2.9-7.6,2.9c-3.8,0-5.8-1.5-7.6-2.9
				c-1.8-1.4-3.5-2.7-7-2.7c-3.5,0-5.2,1.3-7,2.7C254.9-1.5,253,0,249.1,0c-3.8,0-5.8-1.5-7.6-2.9c-1.8-1.4-3.5-2.7-7-2.7
				c-3.5,0-5.2,1.3-7,2.7c-1.9,1.4-3.8,2.9-7.6,2.9c-3.8,0-5.8-1.5-7.6-2.9c-1.8-1.4-3.5-2.7-7-2.7c-3.5,0-5.2,1.3-7,2.7
				c-1.9,1.4-3.8,2.9-7.6,2.9c-3.8,0-5.8-1.5-7.6-2.9c-1.8-1.4-3.5-2.7-7-2.7c-3.5,0-5.2,1.3-7,2.7C166.9-1.5,165,0,161.2,0
				s-5.8-1.5-7.6-2.9c-1.8-1.4-3.5-2.7-7-2.7c-3.5,0-5.2,1.3-7,2.7c-1.9,1.4-3.8,2.9-7.6,2.9s-5.8-1.5-7.6-2.9
				c-1.8-1.4-3.5-2.7-7-2.7c-3.5,0-5.2,1.3-7,2.7c-1.9,1.4-3.8,2.9-7.6,2.9c-3.8,0-5.8-1.5-7.6-2.9c-1.8-1.4-3.5-2.7-7-2.7
				c-3.5,0-5.2,1.3-7,2.7C79-1.5,77.1,0,73.3,0s-5.8-1.5-7.6-2.9c-1.8-1.4-3.5-2.7-7-2.7c-3.5,0-5.2,1.3-7,2.7C49.7-1.5,47.8,0,44,0
				s-5.8-1.5-7.6-2.9c-1.8-1.4-3.5-2.7-7-2.7c-3.5,0-5.2,1.3-7,2.7C20.4-1.5,18.5,0,14.7,0C10.8,0,8.9-1.5,7-2.9
				C5.2-4.3,3.5-5.6,0-5.6v-1c3.8,0,5.8,1.5,7.6,2.9c1.8,1.4,3.5,2.7,7,2.7c3.5,0,5.2-1.3,7-2.7c1.9-1.4,3.8-2.9,7.6-2.9
				c3.8,0,5.8,1.5,7.6,2.9C38.7-2.3,40.5-1,44-1s5.2-1.3,7-2.7c1.9-1.4,3.8-2.9,7.6-2.9c3.8,0,5.8,1.5,7.6,2.9C68-2.3,69.8-1,73.3-1
				s5.2-1.3,7-2.7c1.9-1.4,3.8-2.9,7.6-2.9c3.8,0,5.8,1.5,7.6,2.9c1.8,1.4,3.5,2.7,7,2.7c3.5,0,5.2-1.3,7-2.7
				c1.9-1.4,3.8-2.9,7.6-2.9c3.8,0,5.8,1.5,7.6,2.9c1.8,1.4,3.5,2.7,7,2.7c3.5,0,5.2-1.3,7-2.7c1.9-1.4,3.8-2.9,7.6-2.9
				s5.8,1.5,7.6,2.9c1.8,1.4,3.5,2.7,7,2.7s5.2-1.3,7-2.7c1.9-1.4,3.8-2.9,7.6-2.9s5.8,1.5,7.6,2.9c1.8,1.4,3.5,2.7,7,2.7
				s5.2-1.3,7-2.7c1.9-1.4,3.8-2.9,7.6-2.9c3.8,0,5.8,1.5,7.6,2.9c1.8,1.4,3.5,2.7,7,2.7c3.5,0,5.2-1.3,7-2.7
				c1.9-1.4,3.8-2.9,7.6-2.9c3.8,0,5.8,1.5,7.6,2.9c1.8,1.4,3.5,2.7,7,2.7c3.5,0,5.2-1.3,7-2.7c1.9-1.4,3.8-2.9,7.6-2.9
				c3.8,0,5.8,1.5,7.6,2.9c1.8,1.4,3.5,2.7,7,2.7c3.5,0,5.2-1.3,7-2.7c1.9-1.4,3.8-2.9,7.6-2.9c3.8,0,5.8,1.5,7.6,2.9
				c1.8,1.4,3.5,2.7,7,2.7c3.5,0,5.2-1.3,7-2.7c1.9-1.4,3.8-2.9,7.6-2.9s5.8,1.5,7.6,2.9c1.8,1.4,3.5,2.7,7,2.7V0z"/>
		</g>
		<g class="st2">
			<path class="st3" d="M337.1-6c-3.8,0-5.8-1.5-7.6-2.9c-1.8-1.4-3.5-2.7-7-2.7s-5.2,1.3-7,2.7c-1.9,1.4-3.8,2.9-7.6,2.9
				c-3.8,0-5.8-1.5-7.6-2.9c-1.8-1.4-3.5-2.7-7-2.7c-3.5,0-5.2,1.3-7,2.7c-1.9,1.4-3.8,2.9-7.6,2.9c-3.8,0-5.8-1.5-7.6-2.9
				c-1.8-1.4-3.5-2.7-7-2.7c-3.5,0-5.2,1.3-7,2.7C254.9-7.5,253-6,249.1-6c-3.8,0-5.8-1.5-7.6-2.9c-1.8-1.4-3.5-2.7-7-2.7
				c-3.5,0-5.2,1.3-7,2.7c-1.9,1.4-3.8,2.9-7.6,2.9c-3.8,0-5.8-1.5-7.6-2.9c-1.8-1.4-3.5-2.7-7-2.7c-3.5,0-5.2,1.3-7,2.7
				c-1.9,1.4-3.8,2.9-7.6,2.9c-3.8,0-5.8-1.5-7.6-2.9c-1.8-1.4-3.5-2.7-7-2.7c-3.5,0-5.2,1.3-7,2.7C166.9-7.5,165-6,161.2-6
				s-5.8-1.5-7.6-2.9c-1.8-1.4-3.5-2.7-7-2.7c-3.5,0-5.2,1.3-7,2.7c-1.9,1.4-3.8,2.9-7.6,2.9s-5.8-1.5-7.6-2.9
				c-1.8-1.4-3.5-2.7-7-2.7c-3.5,0-5.2,1.3-7,2.7c-1.9,1.4-3.8,2.9-7.6,2.9c-3.8,0-5.8-1.5-7.6-2.9c-1.8-1.4-3.5-2.7-7-2.7
				c-3.5,0-5.2,1.3-7,2.7C79-7.5,77.1-6,73.3-6s-5.8-1.5-7.6-2.9c-1.8-1.4-3.5-2.7-7-2.7c-3.5,0-5.2,1.3-7,2.7C49.7-7.5,47.8-6,44-6
				s-5.8-1.5-7.6-2.9c-1.8-1.4-3.5-2.7-7-2.7c-3.5,0-5.2,1.3-7,2.7C20.4-7.5,18.5-6,14.7-6C10.8-6,8.9-7.5,7-8.9
				c-1.8-1.4-3.5-2.7-7-2.7v-1c3.8,0,5.8,1.5,7.6,2.9c1.8,1.4,3.5,2.7,7,2.7c3.5,0,5.2-1.3,7-2.7c1.9-1.4,3.8-2.9,7.6-2.9
				c3.8,0,5.8,1.5,7.6,2.9C38.7-8.3,40.5-7,44-7s5.2-1.3,7-2.7c1.9-1.4,3.8-2.9,7.6-2.9c3.8,0,5.8,1.5,7.6,2.9C68-8.3,69.8-7,73.3-7
				s5.2-1.3,7-2.7c1.9-1.4,3.8-2.9,7.6-2.9c3.8,0,5.8,1.5,7.6,2.9c1.8,1.4,3.5,2.7,7,2.7c3.5,0,5.2-1.3,7-2.7
				c1.9-1.4,3.8-2.9,7.6-2.9c3.8,0,5.8,1.5,7.6,2.9c1.8,1.4,3.5,2.7,7,2.7c3.5,0,5.2-1.3,7-2.7c1.9-1.4,3.8-2.9,7.6-2.9
				s5.8,1.5,7.6,2.9c1.8,1.4,3.5,2.7,7,2.7s5.2-1.3,7-2.7c1.9-1.4,3.8-2.9,7.6-2.9s5.8,1.5,7.6,2.9c1.8,1.4,3.5,2.7,7,2.7
				s5.2-1.3,7-2.7c1.9-1.4,3.8-2.9,7.6-2.9c3.8,0,5.8,1.5,7.6,2.9c1.8,1.4,3.5,2.7,7,2.7c3.5,0,5.2-1.3,7-2.7
				c1.9-1.4,3.8-2.9,7.6-2.9c3.8,0,5.8,1.5,7.6,2.9c1.8,1.4,3.5,2.7,7,2.7c3.5,0,5.2-1.3,7-2.7c1.9-1.4,3.8-2.9,7.6-2.9
				c3.8,0,5.8,1.5,7.6,2.9c1.8,1.4,3.5,2.7,7,2.7c3.5,0,5.2-1.3,7-2.7c1.9-1.4,3.8-2.9,7.6-2.9c3.8,0,5.8,1.5,7.6,2.9
				c1.8,1.4,3.5,2.7,7,2.7c3.5,0,5.2-1.3,7-2.7c1.9-1.4,3.8-2.9,7.6-2.9s5.8,1.5,7.6,2.9c1.8,1.4,3.5,2.7,7,2.7V-6z"/>
		</g>
		<g class="st2">
			<path class="st3" d="M337.1-12c-3.8,0-5.8-1.5-7.6-2.9c-1.8-1.4-3.5-2.7-7-2.7s-5.2,1.3-7,2.7c-1.9,1.4-3.8,2.9-7.6,2.9
				c-3.8,0-5.8-1.5-7.6-2.9c-1.8-1.4-3.5-2.7-7-2.7c-3.5,0-5.2,1.3-7,2.7c-1.9,1.4-3.8,2.9-7.6,2.9c-3.8,0-5.8-1.5-7.6-2.9
				c-1.8-1.4-3.5-2.7-7-2.7c-3.5,0-5.2,1.3-7,2.7c-1.9,1.4-3.8,2.9-7.6,2.9c-3.8,0-5.8-1.5-7.6-2.9c-1.8-1.4-3.5-2.7-7-2.7
				c-3.5,0-5.2,1.3-7,2.7c-1.9,1.4-3.8,2.9-7.6,2.9c-3.8,0-5.8-1.5-7.6-2.9c-1.8-1.4-3.5-2.7-7-2.7c-3.5,0-5.2,1.3-7,2.7
				c-1.9,1.4-3.8,2.9-7.6,2.9c-3.8,0-5.8-1.5-7.6-2.9c-1.8-1.4-3.5-2.7-7-2.7c-3.5,0-5.2,1.3-7,2.7c-1.9,1.4-3.8,2.9-7.6,2.9
				s-5.8-1.5-7.6-2.9c-1.8-1.4-3.5-2.7-7-2.7c-3.5,0-5.2,1.3-7,2.7c-1.9,1.4-3.8,2.9-7.6,2.9s-5.8-1.5-7.6-2.9
				c-1.8-1.4-3.5-2.7-7-2.7c-3.5,0-5.2,1.3-7,2.7c-1.9,1.4-3.8,2.9-7.6,2.9c-3.8,0-5.8-1.5-7.6-2.9c-1.8-1.4-3.5-2.7-7-2.7
				c-3.5,0-5.2,1.3-7,2.7C79-13.5,77.1-12,73.3-12s-5.8-1.5-7.6-2.9c-1.8-1.4-3.5-2.7-7-2.7c-3.5,0-5.2,1.3-7,2.7
				C49.7-13.5,47.8-12,44-12s-5.8-1.5-7.6-2.9c-1.8-1.4-3.5-2.7-7-2.7c-3.5,0-5.2,1.3-7,2.7c-1.9,1.4-3.8,2.9-7.6,2.9
				c-3.8,0-5.8-1.5-7.6-2.9c-1.8-1.4-3.5-2.7-7-2.7v-1c3.8,0,5.8,1.5,7.6,2.9c1.8,1.4,3.5,2.7,7,2.7c3.5,0,5.2-1.3,7-2.7
				c1.9-1.4,3.8-2.9,7.6-2.9c3.8,0,5.8,1.5,7.6,2.9c1.8,1.4,3.5,2.7,7,2.7s5.2-1.3,7-2.7c1.9-1.4,3.8-2.9,7.6-2.9
				c3.8,0,5.8,1.5,7.6,2.9c1.8,1.4,3.5,2.7,7,2.7s5.2-1.3,7-2.7c1.9-1.4,3.8-2.9,7.6-2.9c3.8,0,5.8,1.5,7.6,2.9
				c1.8,1.4,3.5,2.7,7,2.7c3.5,0,5.2-1.3,7-2.7c1.9-1.4,3.8-2.9,7.6-2.9c3.8,0,5.8,1.5,7.6,2.9c1.8,1.4,3.5,2.7,7,2.7
				c3.5,0,5.2-1.3,7-2.7c1.9-1.4,3.8-2.9,7.6-2.9s5.8,1.5,7.6,2.9c1.8,1.4,3.5,2.7,7,2.7s5.2-1.3,7-2.7c1.9-1.4,3.8-2.9,7.6-2.9
				s5.8,1.5,7.6,2.9c1.8,1.4,3.5,2.7,7,2.7s5.2-1.3,7-2.7c1.9-1.4,3.8-2.9,7.6-2.9c3.8,0,5.8,1.5,7.6,2.9c1.8,1.4,3.5,2.7,7,2.7
				c3.5,0,5.2-1.3,7-2.7c1.9-1.4,3.8-2.9,7.6-2.9c3.8,0,5.8,1.5,7.6,2.9c1.8,1.4,3.5,2.7,7,2.7c3.5,0,5.2-1.3,7-2.7
				c1.9-1.4,3.8-2.9,7.6-2.9c3.8,0,5.8,1.5,7.6,2.9c1.8,1.4,3.5,2.7,7,2.7c3.5,0,5.2-1.3,7-2.7c1.9-1.4,3.8-2.9,7.6-2.9
				c3.8,0,5.8,1.5,7.6,2.9c1.8,1.4,3.5,2.7,7,2.7c3.5,0,5.2-1.3,7-2.7c1.9-1.4,3.8-2.9,7.6-2.9s5.8,1.5,7.6,2.9
				c1.8,1.4,3.5,2.7,7,2.7V-12z"/>
		</g>
		<g class="st2">
			<path class="st3" d="M337.1-18c-3.8,0-5.8-1.5-7.6-2.9c-1.8-1.4-3.5-2.7-7-2.7s-5.2,1.3-7,2.7c-1.9,1.4-3.8,2.9-7.6,2.9
				c-3.8,0-5.8-1.5-7.6-2.9c-1.8-1.4-3.5-2.7-7-2.7c-3.5,0-5.2,1.3-7,2.7c-1.9,1.4-3.8,2.9-7.6,2.9c-3.8,0-5.8-1.5-7.6-2.9
				c-1.8-1.4-3.5-2.7-7-2.7c-3.5,0-5.2,1.3-7,2.7c-1.9,1.4-3.8,2.9-7.6,2.9c-3.8,0-5.8-1.5-7.6-2.9c-1.8-1.4-3.5-2.7-7-2.7
				c-3.5,0-5.2,1.3-7,2.7c-1.9,1.4-3.8,2.9-7.6,2.9c-3.8,0-5.8-1.5-7.6-2.9c-1.8-1.4-3.5-2.7-7-2.7c-3.5,0-5.2,1.3-7,2.7
				c-1.9,1.4-3.8,2.9-7.6,2.9c-3.8,0-5.8-1.5-7.6-2.9c-1.8-1.4-3.5-2.7-7-2.7c-3.5,0-5.2,1.3-7,2.7c-1.9,1.4-3.8,2.9-7.6,2.9
				s-5.8-1.5-7.6-2.9c-1.8-1.4-3.5-2.7-7-2.7c-3.5,0-5.2,1.3-7,2.7c-1.9,1.4-3.8,2.9-7.6,2.9s-5.8-1.5-7.6-2.9
				c-1.8-1.4-3.5-2.7-7-2.7c-3.5,0-5.2,1.3-7,2.7c-1.9,1.4-3.8,2.9-7.6,2.9c-3.8,0-5.8-1.5-7.6-2.9c-1.8-1.4-3.5-2.7-7-2.7
				c-3.5,0-5.2,1.3-7,2.7C79-19.5,77.1-18,73.3-18s-5.8-1.5-7.6-2.9c-1.8-1.4-3.5-2.7-7-2.7c-3.5,0-5.2,1.3-7,2.7
				C49.7-19.5,47.8-18,44-18s-5.8-1.5-7.6-2.9c-1.8-1.4-3.5-2.7-7-2.7c-3.5,0-5.2,1.3-7,2.7c-1.9,1.4-3.8,2.9-7.6,2.9
				c-3.8,0-5.8-1.5-7.6-2.9c-1.8-1.4-3.5-2.7-7-2.7v-1c3.8,0,5.8,1.5,7.6,2.9c1.8,1.4,3.5,2.7,7,2.7c3.5,0,5.2-1.3,7-2.7
				c1.9-1.4,3.8-2.9,7.6-2.9c3.8,0,5.8,1.5,7.6,2.9c1.8,1.4,3.5,2.7,7,2.7s5.2-1.3,7-2.7c1.9-1.4,3.8-2.9,7.6-2.9
				c3.8,0,5.8,1.5,7.6,2.9c1.8,1.4,3.5,2.7,7,2.7s5.2-1.3,7-2.7c1.9-1.4,3.8-2.9,7.6-2.9c3.8,0,5.8,1.5,7.6,2.9
				c1.8,1.4,3.5,2.7,7,2.7c3.5,0,5.2-1.3,7-2.7c1.9-1.4,3.8-2.9,7.6-2.9c3.8,0,5.8,1.5,7.6,2.9c1.8,1.4,3.5,2.7,7,2.7
				c3.5,0,5.2-1.3,7-2.7c1.9-1.4,3.8-2.9,7.6-2.9s5.8,1.5,7.6,2.9c1.8,1.4,3.5,2.7,7,2.7s5.2-1.3,7-2.7c1.9-1.4,3.8-2.9,7.6-2.9
				s5.8,1.5,7.6,2.9c1.8,1.4,3.5,2.7,7,2.7s5.2-1.3,7-2.7c1.9-1.4,3.8-2.9,7.6-2.9c3.8,0,5.8,1.5,7.6,2.9c1.8,1.4,3.5,2.7,7,2.7
				c3.5,0,5.2-1.3,7-2.7c1.9-1.4,3.8-2.9,7.6-2.9c3.8,0,5.8,1.5,7.6,2.9c1.8,1.4,3.5,2.7,7,2.7c3.5,0,5.2-1.3,7-2.7
				c1.9-1.4,3.8-2.9,7.6-2.9c3.8,0,5.8,1.5,7.6,2.9c1.8,1.4,3.5,2.7,7,2.7c3.5,0,5.2-1.3,7-2.7c1.9-1.4,3.8-2.9,7.6-2.9
				c3.8,0,5.8,1.5,7.6,2.9c1.8,1.4,3.5,2.7,7,2.7c3.5,0,5.2-1.3,7-2.7c1.9-1.4,3.8-2.9,7.6-2.9s5.8,1.5,7.6,2.9
				c1.8,1.4,3.5,2.7,7,2.7V-18z"/>
		</g>
		<g class="st2">
			<path class="st3" d="M337.1-24c-3.8,0-5.8-1.5-7.6-2.9c-1.8-1.4-3.5-2.7-7-2.7s-5.2,1.3-7,2.7c-1.9,1.4-3.8,2.9-7.6,2.9
				c-3.8,0-5.8-1.5-7.6-2.9c-1.8-1.4-3.5-2.7-7-2.7c-3.5,0-5.2,1.3-7,2.7c-1.9,1.4-3.8,2.9-7.6,2.9c-3.8,0-5.8-1.5-7.6-2.9
				c-1.8-1.4-3.5-2.7-7-2.7c-3.5,0-5.2,1.3-7,2.7c-1.9,1.4-3.8,2.9-7.6,2.9c-3.8,0-5.8-1.5-7.6-2.9c-1.8-1.4-3.5-2.7-7-2.7
				c-3.5,0-5.2,1.3-7,2.7c-1.9,1.4-3.8,2.9-7.6,2.9c-3.8,0-5.8-1.5-7.6-2.9c-1.8-1.4-3.5-2.7-7-2.7c-3.5,0-5.2,1.3-7,2.7
				c-1.9,1.4-3.8,2.9-7.6,2.9c-3.8,0-5.8-1.5-7.6-2.9c-1.8-1.4-3.5-2.7-7-2.7c-3.5,0-5.2,1.3-7,2.7c-1.9,1.4-3.8,2.9-7.6,2.9
				s-5.8-1.5-7.6-2.9c-1.8-1.4-3.5-2.7-7-2.7c-3.5,0-5.2,1.3-7,2.7c-1.9,1.4-3.8,2.9-7.6,2.9s-5.8-1.5-7.6-2.9
				c-1.8-1.4-3.5-2.7-7-2.7c-3.5,0-5.2,1.3-7,2.7c-1.9,1.4-3.8,2.9-7.6,2.9c-3.8,0-5.8-1.5-7.6-2.9c-1.8-1.4-3.5-2.7-7-2.7
				c-3.5,0-5.2,1.3-7,2.7C79-25.5,77.1-24,73.3-24s-5.8-1.5-7.6-2.9c-1.8-1.4-3.5-2.7-7-2.7c-3.5,0-5.2,1.3-7,2.7
				C49.7-25.5,47.8-24,44-24s-5.8-1.5-7.6-2.9c-1.8-1.4-3.5-2.7-7-2.7c-3.5,0-5.2,1.3-7,2.7c-1.9,1.4-3.8,2.9-7.6,2.9
				c-3.8,0-5.8-1.5-7.6-2.9c-1.8-1.4-3.5-2.7-7-2.7v-1c3.8,0,5.8,1.5,7.6,2.9c1.8,1.4,3.5,2.7,7,2.7c3.5,0,5.2-1.3,7-2.7
				c1.9-1.4,3.8-2.9,7.6-2.9c3.8,0,5.8,1.5,7.6,2.9c1.8,1.4,3.5,2.7,7,2.7s5.2-1.3,7-2.7c1.9-1.4,3.8-2.9,7.6-2.9
				c3.8,0,5.8,1.5,7.6,2.9c1.8,1.4,3.5,2.7,7,2.7s5.2-1.3,7-2.7c1.9-1.4,3.8-2.9,7.6-2.9c3.8,0,5.8,1.5,7.6,2.9
				c1.8,1.4,3.5,2.7,7,2.7c3.5,0,5.2-1.3,7-2.7c1.9-1.4,3.8-2.9,7.6-2.9c3.8,0,5.8,1.5,7.6,2.9c1.8,1.4,3.5,2.7,7,2.7
				c3.5,0,5.2-1.3,7-2.7c1.9-1.4,3.8-2.9,7.6-2.9s5.8,1.5,7.6,2.9c1.8,1.4,3.5,2.7,7,2.7s5.2-1.3,7-2.7c1.9-1.4,3.8-2.9,7.6-2.9
				s5.8,1.5,7.6,2.9c1.8,1.4,3.5,2.7,7,2.7s5.2-1.3,7-2.7c1.9-1.4,3.8-2.9,7.6-2.9c3.8,0,5.8,1.5,7.6,2.9c1.8,1.4,3.5,2.7,7,2.7
				c3.5,0,5.2-1.3,7-2.7c1.9-1.4,3.8-2.9,7.6-2.9c3.8,0,5.8,1.5,7.6,2.9c1.8,1.4,3.5,2.7,7,2.7c3.5,0,5.2-1.3,7-2.7
				c1.9-1.4,3.8-2.9,7.6-2.9c3.8,0,5.8,1.5,7.6,2.9c1.8,1.4,3.5,2.7,7,2.7c3.5,0,5.2-1.3,7-2.7c1.9-1.4,3.8-2.9,7.6-2.9
				c3.8,0,5.8,1.5,7.6,2.9c1.8,1.4,3.5,2.7,7,2.7c3.5,0,5.2-1.3,7-2.7c1.9-1.4,3.8-2.9,7.6-2.9s5.8,1.5,7.6,2.9
				c1.8,1.4,3.5,2.7,7,2.7V-24z"/>
		</g>
		<g class="st2">
			<path class="st3" d="M337.1-30c-3.8,0-5.8-1.5-7.6-2.9c-1.8-1.4-3.5-2.7-7-2.7s-5.2,1.3-7,2.7c-1.9,1.4-3.8,2.9-7.6,2.9
				c-3.8,0-5.8-1.5-7.6-2.9c-1.8-1.4-3.5-2.7-7-2.7c-3.5,0-5.2,1.3-7,2.7c-1.9,1.4-3.8,2.9-7.6,2.9c-3.8,0-5.8-1.5-7.6-2.9
				c-1.8-1.4-3.5-2.7-7-2.7c-3.5,0-5.2,1.3-7,2.7c-1.9,1.4-3.8,2.9-7.6,2.9c-3.8,0-5.8-1.5-7.6-2.9c-1.8-1.4-3.5-2.7-7-2.7
				c-3.5,0-5.2,1.3-7,2.7c-1.9,1.4-3.8,2.9-7.6,2.9c-3.8,0-5.8-1.5-7.6-2.9c-1.8-1.4-3.5-2.7-7-2.7c-3.5,0-5.2,1.3-7,2.7
				c-1.9,1.4-3.8,2.9-7.6,2.9c-3.8,0-5.8-1.5-7.6-2.9c-1.8-1.4-3.5-2.7-7-2.7c-3.5,0-5.2,1.3-7,2.7c-1.9,1.4-3.8,2.9-7.6,2.9
				s-5.8-1.5-7.6-2.9c-1.8-1.4-3.5-2.7-7-2.7c-3.5,0-5.2,1.3-7,2.7c-1.9,1.4-3.8,2.9-7.6,2.9s-5.8-1.5-7.6-2.9
				c-1.8-1.4-3.5-2.7-7-2.7c-3.5,0-5.2,1.3-7,2.7c-1.9,1.4-3.8,2.9-7.6,2.9c-3.8,0-5.8-1.5-7.6-2.9c-1.8-1.4-3.5-2.7-7-2.7
				c-3.5,0-5.2,1.3-7,2.7C79-31.5,77.1-30,73.3-30s-5.8-1.5-7.6-2.9c-1.8-1.4-3.5-2.7-7-2.7c-3.5,0-5.2,1.3-7,2.7
				C49.7-31.5,47.8-30,44-30s-5.8-1.5-7.6-2.9c-1.8-1.4-3.5-2.7-7-2.7c-3.5,0-5.2,1.3-7,2.7c-1.9,1.4-3.8,2.9-7.6,2.9
				c-3.8,0-5.8-1.5-7.6-2.9c-1.8-1.4-3.5-2.7-7-2.7v-1c3.8,0,5.8,1.5,7.6,2.9c1.8,1.4,3.5,2.7,7,2.7c3.5,0,5.2-1.3,7-2.7
				c1.9-1.4,3.8-2.9,7.6-2.9c3.8,0,5.8,1.5,7.6,2.9c1.8,1.4,3.5,2.7,7,2.7s5.2-1.3,7-2.7c1.9-1.4,3.8-2.9,7.6-2.9
				c3.8,0,5.8,1.5,7.6,2.9c1.8,1.4,3.5,2.7,7,2.7s5.2-1.3,7-2.7c1.9-1.4,3.8-2.9,7.6-2.9c3.8,0,5.8,1.5,7.6,2.9
				c1.8,1.4,3.5,2.7,7,2.7c3.5,0,5.2-1.3,7-2.7c1.9-1.4,3.8-2.9,7.6-2.9c3.8,0,5.8,1.5,7.6,2.9c1.8,1.4,3.5,2.7,7,2.7
				c3.5,0,5.2-1.3,7-2.7c1.9-1.4,3.8-2.9,7.6-2.9s5.8,1.5,7.6,2.9c1.8,1.4,3.5,2.7,7,2.7s5.2-1.3,7-2.7c1.9-1.4,3.8-2.9,7.6-2.9
				s5.8,1.5,7.6,2.9c1.8,1.4,3.5,2.7,7,2.7s5.2-1.3,7-2.7c1.9-1.4,3.8-2.9,7.6-2.9c3.8,0,5.8,1.5,7.6,2.9c1.8,1.4,3.5,2.7,7,2.7
				c3.5,0,5.2-1.3,7-2.7c1.9-1.4,3.8-2.9,7.6-2.9c3.8,0,5.8,1.5,7.6,2.9c1.8,1.4,3.5,2.7,7,2.7c3.5,0,5.2-1.3,7-2.7
				c1.9-1.4,3.8-2.9,7.6-2.9c3.8,0,5.8,1.5,7.6,2.9c1.8,1.4,3.5,2.7,7,2.7c3.5,0,5.2-1.3,7-2.7c1.9-1.4,3.8-2.9,7.6-2.9
				c3.8,0,5.8,1.5,7.6,2.9c1.8,1.4,3.5,2.7,7,2.7c3.5,0,5.2-1.3,7-2.7c1.9-1.4,3.8-2.9,7.6-2.9s5.8,1.5,7.6,2.9
				c1.8,1.4,3.5,2.7,7,2.7V-30z"/>
		</g>
		<g class="st2">
			<path class="st3" d="M337.1-36c-3.8,0-5.8-1.5-7.6-2.9c-1.8-1.4-3.5-2.7-7-2.7s-5.2,1.3-7,2.7c-1.9,1.4-3.8,2.9-7.6,2.9
				c-3.8,0-5.8-1.5-7.6-2.9c-1.8-1.4-3.5-2.7-7-2.7c-3.5,0-5.2,1.3-7,2.7c-1.9,1.4-3.8,2.9-7.6,2.9c-3.8,0-5.8-1.5-7.6-2.9
				c-1.8-1.4-3.5-2.7-7-2.7c-3.5,0-5.2,1.3-7,2.7c-1.9,1.4-3.8,2.9-7.6,2.9c-3.8,0-5.8-1.5-7.6-2.9c-1.8-1.4-3.5-2.7-7-2.7
				c-3.5,0-5.2,1.3-7,2.7c-1.9,1.4-3.8,2.9-7.6,2.9c-3.8,0-5.8-1.5-7.6-2.9c-1.8-1.4-3.5-2.7-7-2.7c-3.5,0-5.2,1.3-7,2.7
				c-1.9,1.4-3.8,2.9-7.6,2.9c-3.8,0-5.8-1.5-7.6-2.9c-1.8-1.4-3.5-2.7-7-2.7c-3.5,0-5.2,1.3-7,2.7c-1.9,1.4-3.8,2.9-7.6,2.9
				s-5.8-1.5-7.6-2.9c-1.8-1.4-3.5-2.7-7-2.7c-3.5,0-5.2,1.3-7,2.7c-1.9,1.4-3.8,2.9-7.6,2.9s-5.8-1.5-7.6-2.9
				c-1.8-1.4-3.5-2.7-7-2.7c-3.5,0-5.2,1.3-7,2.7c-1.9,1.4-3.8,2.9-7.6,2.9c-3.8,0-5.8-1.5-7.6-2.9c-1.8-1.4-3.5-2.7-7-2.7
				c-3.5,0-5.2,1.3-7,2.7C79-37.5,77.1-36,73.3-36s-5.8-1.5-7.6-2.9c-1.8-1.4-3.5-2.7-7-2.7c-3.5,0-5.2,1.3-7,2.7
				C49.7-37.5,47.8-36,44-36s-5.8-1.5-7.6-2.9c-1.8-1.4-3.5-2.7-7-2.7c-3.5,0-5.2,1.3-7,2.7c-1.9,1.4-3.8,2.9-7.6,2.9
				c-3.8,0-5.8-1.5-7.6-2.9c-1.8-1.4-3.5-2.7-7-2.7v-1c3.8,0,5.8,1.5,7.6,2.9c1.8,1.4,3.5,2.7,7,2.7c3.5,0,5.2-1.3,7-2.7
				c1.9-1.4,3.8-2.9,7.6-2.9c3.8,0,5.8,1.5,7.6,2.9c1.8,1.4,3.5,2.7,7,2.7s5.2-1.3,7-2.7c1.9-1.4,3.8-2.9,7.6-2.9
				c3.8,0,5.8,1.5,7.6,2.9c1.8,1.4,3.5,2.7,7,2.7s5.2-1.3,7-2.7c1.9-1.4,3.8-2.9,7.6-2.9c3.8,0,5.8,1.5,7.6,2.9
				c1.8,1.4,3.5,2.7,7,2.7c3.5,0,5.2-1.3,7-2.7c1.9-1.4,3.8-2.9,7.6-2.9c3.8,0,5.8,1.5,7.6,2.9c1.8,1.4,3.5,2.7,7,2.7
				c3.5,0,5.2-1.3,7-2.7c1.9-1.4,3.8-2.9,7.6-2.9s5.8,1.5,7.6,2.9c1.8,1.4,3.5,2.7,7,2.7s5.2-1.3,7-2.7c1.9-1.4,3.8-2.9,7.6-2.9
				s5.8,1.5,7.6,2.9c1.8,1.4,3.5,2.7,7,2.7s5.2-1.3,7-2.7c1.9-1.4,3.8-2.9,7.6-2.9c3.8,0,5.8,1.5,7.6,2.9c1.8,1.4,3.5,2.7,7,2.7
				c3.5,0,5.2-1.3,7-2.7c1.9-1.4,3.8-2.9,7.6-2.9c3.8,0,5.8,1.5,7.6,2.9c1.8,1.4,3.5,2.7,7,2.7c3.5,0,5.2-1.3,7-2.7
				c1.9-1.4,3.8-2.9,7.6-2.9c3.8,0,5.8,1.5,7.6,2.9c1.8,1.4,3.5,2.7,7,2.7c3.5,0,5.2-1.3,7-2.7c1.9-1.4,3.8-2.9,7.6-2.9
				c3.8,0,5.8,1.5,7.6,2.9c1.8,1.4,3.5,2.7,7,2.7c3.5,0,5.2-1.3,7-2.7c1.9-1.4,3.8-2.9,7.6-2.9s5.8,1.5,7.6,2.9
				c1.8,1.4,3.5,2.7,7,2.7V-36z"/>
		</g>
	</g>
</pattern>
<pattern  id="SVGID_1_" xlink:href="#New_Pattern_Swatch_7" patternTransform="matrix(0.4797 0 0 -0.4797 -3850.396 -11869.04)">
</pattern>
<circle class="st4" cx="34.8" cy="18" r="18"/>
<pattern  id="SVGID_2_" xlink:href="#New_Pattern_Swatch_10" patternTransform="matrix(0.2982 0 0 0.2982 -5702.564 -5658.2812)">
</pattern>
<circle class="st5" cx="25" cy="74.9" r="25"/>
</svg>
