<?xml version="1.0" encoding="utf-8"?>
<!-- Generator: Adobe Illustrator 21.1.0, SVG Export Plug-In . SVG Version: 6.00 Build 0)  -->
<svg version="1.1" id="Layer_1" xmlns="http://www.w3.org/2000/svg" xmlns:xlink="http://www.w3.org/1999/xlink" x="0px" y="0px"
	 viewBox="0 0 38.7 100" style="enable-background:new 0 0 38.7 100;" xml:space="preserve">
<style type="text/css">
	.st0{fill:none;}
	.st1{opacity:0.8;}
	.st2{fill:#426DB5;}
	.st3{fill:#426DB5;enable-background:new    ;}
	.st4{fill:#FAED24;enable-background:new    ;}
	.st5{fill:#EF422B;enable-background:new    ;}
	.st6{fill:url(#SVGID_2_);}
</style>
<pattern  y="100" width="337.1" height="30" patternUnits="userSpaceOnUse" id="SVGID_1_" viewBox="0 -36.3 337.1 30" style="overflow:visible;">
	<g>
		<rect y="-36.3" class="st0" width="337.1" height="30"/>
		<g>
			<rect y="-36.3" class="st0" width="337.1" height="30"/>
			<g class="st1">
				<path class="st2" d="M337.1-42.6c-3.8,0-5.8,1.5-7.6,2.9c-1.8,1.4-3.5,2.7-7,2.7s-5.2-1.3-7-2.7c-1.9-1.4-3.8-2.9-7.6-2.9
					c-3.8,0-5.8,1.5-7.6,2.9c-1.8,1.4-3.5,2.7-7,2.7s-5.2-1.3-7-2.7c-1.9-1.4-3.8-2.9-7.6-2.9c-3.8,0-5.8,1.5-7.6,2.9
					c-1.8,1.4-3.5,2.7-7,2.7s-5.2-1.3-7-2.7c-2.2-1.4-4.1-2.9-8-2.9c-3.8,0-5.8,1.5-7.6,2.9c-1.8,1.4-3.5,2.7-7,2.7s-5.2-1.3-7-2.7
					c-1.9-1.4-3.8-2.9-7.6-2.9s-5.8,1.5-7.6,2.9c-1.8,1.4-3.5,2.7-7,2.7s-5.2-1.3-7-2.7c-1.9-1.4-3.8-2.9-7.6-2.9s-5.8,1.5-7.6,2.9
					c-1.8,1.4-3.5,2.7-7,2.7s-5.2-1.3-7-2.7c-2.2-1.4-4.1-2.9-7.9-2.9s-5.8,1.5-7.6,2.9c-1.8,1.4-3.5,2.7-7,2.7s-5.2-1.3-7-2.7
					c-1.9-1.4-3.8-2.9-7.6-2.9s-5.8,1.5-7.6,2.9c-1.8,1.4-3.5,2.7-7,2.7s-5.2-1.3-7-2.7c-1.9-1.4-3.8-2.9-7.6-2.9
					c-3.8,0-5.8,1.5-7.6,2.9c-1.8,1.4-3.5,2.7-7,2.7s-5.2-1.3-7-2.7c-2.2-1.4-4.1-2.9-7.9-2.9s-5.8,1.5-7.6,2.9
					c-1.8,1.4-3.5,2.7-7,2.7s-5.2-1.3-7-2.7c-2-1.4-3.9-2.9-7.7-2.9s-5.8,1.5-7.6,2.9c-1.8,1.4-3.5,2.7-7,2.7s-5.2-1.3-7-2.7
					c-2-1.4-3.9-2.9-7.7-2.9c-3.9,0-5.8,1.5-7.7,2.9C5.2-38.3,3.5-37,0-37v1c3.8,0,5.8-1.5,7.6-2.9c1.8-1.4,3.5-2.7,7-2.7
					s5.2,1.3,7,2.7c1.9,1.4,3.8,2.9,7.6,2.9s5.8-1.5,7.6-2.9c1.9-1.4,3.7-2.7,7.2-2.7s5.2,1.3,7,2.7c1.9,1.4,3.8,2.9,7.6,2.9
					s5.8-1.5,7.6-2.9c1.8-1.4,3.6-2.7,7.1-2.7s5.2,1.3,7,2.7c1.9,1.4,3.8,2.9,7.6,2.9c3.8,0,5.8-1.5,7.6-2.9c1.8-1.4,3.5-2.7,7-2.7
					s5.2,1.3,7,2.7c1.9,1.4,3.8,2.9,7.6,2.9c3.8,0,5.8-1.5,7.6-2.9c1.8-1.4,3.5-2.7,7-2.7s5.2,1.3,7,2.7c1.9,1.4,3.8,2.9,7.6,2.9
					s5.8-1.5,7.6-2.9s3.5-2.7,7-2.7s5.2,1.3,7,2.7c1.9,1.4,3.8,2.9,7.6,2.9s5.8-1.5,7.6-2.9s3.5-2.7,7-2.7s5.2,1.3,7,2.7
					c1.9,1.4,3.8,2.9,7.6,2.9s5.8-1.5,7.6-2.9s3.5-2.7,7-2.7s5.2,1.3,7,2.7c1.9,1.4,3.8,2.9,7.6,2.9s5.8-1.5,7.6-2.9s3.5-2.7,7-2.7
					s5.2,1.3,7,2.7c1.9,1.4,3.8,2.9,7.6,2.9s5.8-1.5,7.6-2.9c1.8-1.4,3.5-2.7,7-2.7s5.2,1.3,7,2.7c1.9,1.4,3.8,2.9,7.6,2.9
					c3.8,0,5.8-1.5,7.6-2.9c1.8-1.4,3.5-2.7,7-2.7s5.2,1.3,7,2.7c1.9,1.4,3.8,2.9,7.6,2.9s5.8-1.5,7.6-2.9c1.8-1.4,3.5-2.7,7-2.7v-1
					H337.1z"/>
			</g>
			<g class="st1">
				<path class="st2" d="M337.1-36.6c-3.8,0-5.8,1.5-7.6,2.9c-1.8,1.4-3.5,2.7-7,2.7s-5.2-1.3-7-2.7c-1.9-1.4-3.8-2.9-7.6-2.9
					c-3.8,0-5.8,1.5-7.6,2.9c-1.8,1.4-3.5,2.7-7,2.7s-5.2-1.3-7-2.7c-1.9-1.4-3.8-2.9-7.6-2.9c-3.8,0-5.8,1.5-7.6,2.9
					c-1.8,1.4-3.5,2.7-7,2.7s-5.2-1.3-7-2.7c-2.2-1.4-4.1-2.9-8-2.9c-3.8,0-5.8,1.5-7.6,2.9c-1.8,1.4-3.5,2.7-7,2.7s-5.2-1.3-7-2.7
					c-1.9-1.4-3.8-2.9-7.6-2.9s-5.8,1.5-7.6,2.9c-1.8,1.4-3.5,2.7-7,2.7s-5.2-1.3-7-2.7c-1.9-1.4-3.8-2.9-7.6-2.9s-5.8,1.5-7.6,2.9
					c-1.8,1.4-3.5,2.7-7,2.7s-5.2-1.3-7-2.7c-2.2-1.4-4.1-2.9-7.9-2.9s-5.8,1.5-7.6,2.9c-1.8,1.4-3.5,2.7-7,2.7s-5.2-1.3-7-2.7
					c-1.9-1.4-3.8-2.9-7.6-2.9s-5.8,1.5-7.6,2.9c-1.8,1.4-3.5,2.7-7,2.7s-5.2-1.3-7-2.7c-1.9-1.4-3.8-2.9-7.6-2.9
					c-3.8,0-5.8,1.5-7.6,2.9c-1.8,1.4-3.5,2.7-7,2.7s-5.2-1.3-7-2.7c-2.2-1.4-4.1-2.9-7.9-2.9s-5.8,1.5-7.6,2.9
					c-1.8,1.4-3.5,2.7-7,2.7s-5.2-1.3-7-2.7c-2-1.4-3.9-2.9-7.7-2.9s-5.8,1.5-7.6,2.9c-1.8,1.4-3.5,2.7-7,2.7s-5.2-1.3-7-2.7
					c-2-1.4-3.9-2.9-7.7-2.9c-3.9,0-5.8,1.5-7.7,2.9C5.2-32.3,3.5-31,0-31v1c3.8,0,5.8-1.5,7.6-2.9c1.8-1.4,3.5-2.7,7-2.7
					s5.2,1.3,7,2.7c1.9,1.4,3.8,2.9,7.6,2.9s5.8-1.5,7.6-2.9c1.9-1.4,3.7-2.7,7.2-2.7s5.2,1.3,7,2.7c1.9,1.4,3.8,2.9,7.6,2.9
					s5.8-1.5,7.6-2.9c1.8-1.4,3.6-2.7,7.1-2.7s5.2,1.3,7,2.7c1.9,1.4,3.8,2.9,7.6,2.9c3.8,0,5.8-1.5,7.6-2.9c1.8-1.4,3.5-2.7,7-2.7
					s5.2,1.3,7,2.7c1.9,1.4,3.8,2.9,7.6,2.9c3.8,0,5.8-1.5,7.6-2.9c1.8-1.4,3.5-2.7,7-2.7s5.2,1.3,7,2.7c1.9,1.4,3.8,2.9,7.6,2.9
					s5.8-1.5,7.6-2.9c1.8-1.4,3.5-2.7,7-2.7s5.2,1.3,7,2.7c1.9,1.4,3.8,2.9,7.6,2.9s5.8-1.5,7.6-2.9c1.8-1.4,3.5-2.7,7-2.7
					s5.2,1.3,7,2.7c1.9,1.4,3.8,2.9,7.6,2.9s5.8-1.5,7.6-2.9c1.8-1.4,3.5-2.7,7-2.7s5.2,1.3,7,2.7c1.9,1.4,3.8,2.9,7.6,2.9
					s5.8-1.5,7.6-2.9c1.8-1.4,3.5-2.7,7-2.7s5.2,1.3,7,2.7c1.9,1.4,3.8,2.9,7.6,2.9s5.8-1.5,7.6-2.9c1.8-1.4,3.5-2.7,7-2.7
					s5.2,1.3,7,2.7c1.9,1.4,3.8,2.9,7.6,2.9c3.8,0,5.8-1.5,7.6-2.9c1.8-1.4,3.5-2.7,7-2.7s5.2,1.3,7,2.7c1.9,1.4,3.8,2.9,7.6,2.9
					s5.8-1.5,7.6-2.9c1.8-1.4,3.5-2.7,7-2.7v-1H337.1z"/>
			</g>
			<g class="st1">
				<path class="st2" d="M337.1-30.6c-3.8,0-5.8,1.5-7.6,2.9c-1.8,1.4-3.5,2.7-7,2.7s-5.2-1.3-7-2.7c-1.9-1.4-3.8-2.9-7.6-2.9
					c-3.8,0-5.8,1.5-7.6,2.9c-1.8,1.4-3.5,2.7-7,2.7s-5.2-1.3-7-2.7c-1.9-1.4-3.8-2.9-7.6-2.9c-3.8,0-5.8,1.5-7.6,2.9
					c-1.8,1.4-3.5,2.7-7,2.7s-5.2-1.3-7-2.7c-1.9-1.4-3.8-2.9-7.6-2.9s-5.8,1.5-7.6,2.9s-3.5,2.7-7,2.7s-5.2-1.3-7-2.7
					c-1.9-1.4-3.8-2.9-7.6-2.9s-5.8,1.5-7.6,2.9s-3.5,2.7-7,2.7s-5.2-1.3-7-2.7c-1.9-1.4-3.8-2.9-7.6-2.9s-5.8,1.5-7.6,2.9
					s-3.5,2.7-7,2.7s-5.2-1.3-7-2.7c-1.9-1.4-3.8-2.9-7.6-2.9s-5.8,1.5-7.6,2.9s-3.5,2.7-7,2.7s-5.2-1.3-7-2.7
					c-1.9-1.4-3.8-2.9-7.6-2.9s-5.8,1.5-7.6,2.9c-1.8,1.4-3.5,2.7-7,2.7s-5.2-1.3-7-2.7c-1.9-1.4-3.8-2.9-7.6-2.9
					c-3.8,0-5.8,1.5-7.6,2.9c-1.8,1.4-3.5,2.7-7,2.7s-5.2-1.3-7-2.7c-2.9-1.4-4.8-2.9-8.6-2.9s-5.8,1.5-7.6,2.9
					c-1.8,1.4-3.5,2.7-7,2.7s-5.2-1.3-7-2.7c-2-1.4-3.9-2.9-7.7-2.9s-5.8,1.5-7.6,2.9s-3.5,2.7-7,2.7s-5.2-1.3-7-2.7
					c-1.9-1.4-3.8-2.9-7.6-2.9S9-29.1,7.2-27.7S3.7-25,0.2-25v1C4-24,6-25.5,7.8-26.9s3.5-2.7,7-2.7s5.2,1.3,7,2.7
					c1.9,1.4,3.8,2.9,7.6,2.9s5.8-1.5,7.6-2.9s3.5-2.7,7-2.7s5.2,1.3,7,2.7c1.9,1.4,3.8,2.9,7.6,2.9s5.8-1.5,7.6-2.9
					c1.8-1.4,3.5-2.7,7-2.7s5.2,1.3,7,2.7c1.9,1.4,3.8,2.9,7.6,2.9c3.8,0,5.8-1.5,7.6-2.9c1.8-1.4,3.5-2.7,7-2.7s5.2,1.3,7,2.7
					c1.9,1.4,3.8,2.9,7.6,2.9c3.8,0,5.8-1.5,7.6-2.9c1.8-1.4,3.5-2.7,7-2.7s5.2,1.3,7,2.7c1.9,1.4,3.8,2.9,7.6,2.9s5.8-1.5,7.6-2.9
					s3.5-2.7,7-2.7s5.2,1.3,7,2.7c1.9,1.4,3.8,2.9,7.6,2.9s5.8-1.5,7.6-2.9s3.5-2.7,7-2.7s5.2,1.3,7,2.7c1.9,1.4,3.8,2.9,7.6,2.9
					s5.8-1.5,7.6-2.9s3.5-2.7,7-2.7s5.2,1.3,7,2.7c1.9,1.4,3.8,2.9,7.6,2.9s5.8-1.5,7.6-2.9s3.5-2.7,7-2.7s5.2,1.3,7,2.7
					c1.9,1.4,3.8,2.9,7.6,2.9s5.8-1.5,7.6-2.9c1.8-1.4,3.5-2.7,7-2.7s5.2,1.3,7,2.7c1.9,1.4,3.8,2.9,7.6,2.9c3.8,0,5.8-1.5,7.6-2.9
					c1.8-1.4,3.5-2.7,7-2.7s5.2,1.3,7,2.7c1.9,1.4,3.8,2.9,7.6,2.9s5.8-1.5,7.6-2.9c1.8-1.4,3.5-2.7,7-2.7v-1H337.1z"/>
			</g>
			<g class="st1">
				<path class="st2" d="M337.1-24.6c-3.8,0-5.8,1.5-7.6,2.9c-1.8,1.4-3.5,2.7-7,2.7s-5.2-1.3-7-2.7c-1.9-1.4-3.8-2.9-7.6-2.9
					c-3.8,0-5.8,1.5-7.6,2.9c-1.8,1.4-3.5,2.7-7,2.7s-5.2-1.3-7-2.7c-1.9-1.4-3.8-2.9-7.6-2.9c-3.8,0-5.8,1.5-7.6,2.9
					c-1.8,1.4-3.5,2.7-7,2.7s-5.2-1.3-7-2.7c-1.9-1.4-3.8-2.9-7.6-2.9s-5.8,1.5-7.6,2.9s-3.5,2.7-7,2.7s-5.2-1.3-7-2.7
					c-1.9-1.4-3.8-2.9-7.6-2.9s-5.8,1.5-7.6,2.9s-3.5,2.7-7,2.7s-5.2-1.3-7-2.7c-1.9-1.4-3.8-2.9-7.6-2.9s-5.8,1.5-7.6,2.9
					s-3.5,2.7-7,2.7s-5.2-1.3-7-2.7c-1.9-1.4-3.8-2.9-7.6-2.9s-5.8,1.5-7.6,2.9s-3.5,2.7-7,2.7s-5.2-1.3-7-2.7
					c-1.9-1.4-3.8-2.9-7.6-2.9s-5.8,1.5-7.6,2.9c-1.8,1.4-3.5,2.7-7,2.7s-5.2-1.3-7-2.7c-1.9-1.4-3.8-2.9-7.6-2.9
					c-3.8,0-5.8,1.5-7.6,2.9c-1.8,1.4-3.5,2.7-7,2.7s-5.2-1.3-7-2.7c-2.9-1.4-4.8-2.9-8.6-2.9s-5.8,1.5-7.6,2.9
					c-1.8,1.4-3.5,2.7-7,2.7s-5.2-1.3-7-2.7c-2-1.4-3.9-2.9-7.7-2.9s-5.8,1.5-7.6,2.9s-3.5,2.7-7,2.7s-5.2-1.3-7-2.7
					c-1.9-1.4-3.8-2.9-7.6-2.9S9-23.1,7.2-21.7S3.7-19,0.2-19v1C4-18,6-19.5,7.8-20.9s3.5-2.7,7-2.7s5.2,1.3,7,2.7
					c1.9,1.4,3.8,2.9,7.6,2.9s5.8-1.5,7.6-2.9s3.5-2.7,7-2.7s5.2,1.3,7,2.7c1.9,1.4,3.8,2.9,7.6,2.9s5.8-1.5,7.6-2.9
					c1.8-1.4,3.5-2.7,7-2.7s5.2,1.3,7,2.7c1.9,1.4,3.8,2.9,7.6,2.9c3.8,0,5.8-1.5,7.6-2.9c1.8-1.4,3.5-2.7,7-2.7s5.2,1.3,7,2.7
					c1.9,1.4,3.8,2.9,7.6,2.9c3.8,0,5.8-1.5,7.6-2.9c1.8-1.4,3.5-2.7,7-2.7s5.2,1.3,7,2.7c1.9,1.4,3.8,2.9,7.6,2.9s5.8-1.5,7.6-2.9
					s3.5-2.7,7-2.7s5.2,1.3,7,2.7c1.9,1.4,3.8,2.9,7.6,2.9s5.8-1.5,7.6-2.9s3.5-2.7,7-2.7s5.2,1.3,7,2.7c1.9,1.4,3.8,2.9,7.6,2.9
					s5.8-1.5,7.6-2.9s3.5-2.7,7-2.7s5.2,1.3,7,2.7c1.9,1.4,3.8,2.9,7.6,2.9s5.8-1.5,7.6-2.9s3.5-2.7,7-2.7s5.2,1.3,7,2.7
					c1.9,1.4,3.8,2.9,7.6,2.9s5.8-1.5,7.6-2.9c1.8-1.4,3.5-2.7,7-2.7s5.2,1.3,7,2.7c1.9,1.4,3.8,2.9,7.6,2.9c3.8,0,5.8-1.5,7.6-2.9
					c1.8-1.4,3.5-2.7,7-2.7s5.2,1.3,7,2.7c1.9,1.4,3.8,2.9,7.6,2.9s5.8-1.5,7.6-2.9c1.8-1.4,3.5-2.7,7-2.7v-1H337.1z"/>
			</g>
			<g class="st1">
				<path class="st2" d="M337.1-18.6c-3.8,0-5.8,1.5-7.6,2.9c-1.8,1.4-3.5,2.7-7,2.7s-5.2-1.3-7-2.7c-1.9-1.4-3.8-2.9-7.6-2.9
					c-3.8,0-5.8,1.5-7.6,2.9c-1.8,1.4-3.5,2.7-7,2.7s-5.2-1.3-7-2.7c-1.9-1.4-3.8-2.9-7.6-2.9c-3.8,0-5.8,1.5-7.6,2.9
					c-1.8,1.4-3.5,2.7-7,2.7s-5.2-1.3-7-2.7c-1.9-1.4-3.8-2.9-7.6-2.9s-5.8,1.5-7.6,2.9s-3.5,2.7-7,2.7s-5.2-1.3-7-2.7
					c-1.9-1.4-3.8-2.9-7.6-2.9s-5.8,1.5-7.6,2.9s-3.5,2.7-7,2.7s-5.2-1.3-7-2.7c-1.9-1.4-3.8-2.9-7.6-2.9s-5.8,1.5-7.6,2.9
					s-3.5,2.7-7,2.7s-5.2-1.3-7-2.7c-1.9-1.4-3.8-2.9-7.6-2.9s-5.8,1.5-7.6,2.9s-3.5,2.7-7,2.7s-5.2-1.3-7-2.7
					c-1.9-1.4-3.8-2.9-7.6-2.9s-5.8,1.5-7.6,2.9c-1.8,1.4-3.5,2.7-7,2.7s-5.2-1.3-7-2.7c-1.9-1.4-3.8-2.9-7.6-2.9
					c-3.8,0-5.8,1.5-7.6,2.9c-1.8,1.4-3.5,2.7-7,2.7s-5.2-1.3-7-2.7c-2.9-1.4-4.8-2.9-8.6-2.9s-5.8,1.5-7.6,2.9
					c-1.8,1.4-3.5,2.7-7,2.7s-5.2-1.3-7-2.7c-2-1.4-3.9-2.9-7.7-2.9s-5.8,1.5-7.6,2.9s-3.5,2.7-7,2.7s-5.2-1.3-7-2.7
					c-1.9-1.4-3.8-2.9-7.6-2.9S9-17.1,7.2-15.7S3.7-13,0.2-13v1C4-12,6-13.5,7.8-14.9s3.5-2.7,7-2.7s5.2,1.3,7,2.7
					c1.9,1.4,3.8,2.9,7.6,2.9s5.8-1.5,7.6-2.9s3.5-2.7,7-2.7s5.2,1.3,7,2.7c1.9,1.4,3.8,2.9,7.6,2.9s5.8-1.5,7.6-2.9
					c1.8-1.4,3.5-2.7,7-2.7s5.2,1.3,7,2.7c1.9,1.4,3.8,2.9,7.6,2.9c3.8,0,5.8-1.5,7.6-2.9c1.8-1.4,3.5-2.7,7-2.7s5.2,1.3,7,2.7
					c1.9,1.4,3.8,2.9,7.6,2.9c3.8,0,5.8-1.5,7.6-2.9c1.8-1.4,3.5-2.7,7-2.7s5.2,1.3,7,2.7c1.9,1.4,3.8,2.9,7.6,2.9s5.8-1.5,7.6-2.9
					s3.5-2.7,7-2.7s5.2,1.3,7,2.7c1.9,1.4,3.8,2.9,7.6,2.9s5.8-1.5,7.6-2.9s3.5-2.7,7-2.7s5.2,1.3,7,2.7c1.9,1.4,3.8,2.9,7.6,2.9
					s5.8-1.5,7.6-2.9s3.5-2.7,7-2.7s5.2,1.3,7,2.7c1.9,1.4,3.8,2.9,7.6,2.9s5.8-1.5,7.6-2.9s3.5-2.7,7-2.7s5.2,1.3,7,2.7
					c1.9,1.4,3.8,2.9,7.6,2.9s5.8-1.5,7.6-2.9c1.8-1.4,3.5-2.7,7-2.7s5.2,1.3,7,2.7c1.9,1.4,3.8,2.9,7.6,2.9c3.8,0,5.8-1.5,7.6-2.9
					c1.8-1.4,3.5-2.7,7-2.7s5.2,1.3,7,2.7c1.9,1.4,3.8,2.9,7.6,2.9s5.8-1.5,7.6-2.9c1.8-1.4,3.5-2.7,7-2.7v-1H337.1z"/>
			</g>
			<g class="st1">
				<path class="st2" d="M337.1-12.6c-3.8,0-5.8,1.5-7.6,2.9c-1.8,1.4-3.5,2.7-7,2.7s-5.2-1.3-7-2.7c-1.9-1.4-3.8-2.9-7.6-2.9
					c-3.8,0-5.8,1.5-7.6,2.9c-1.8,1.4-3.5,2.7-7,2.7s-5.2-1.3-7-2.7c-1.9-1.4-3.8-2.9-7.6-2.9c-3.8,0-5.8,1.5-7.6,2.9
					c-1.8,1.4-3.5,2.7-7,2.7s-5.2-1.3-7-2.7c-1.9-1.4-3.8-2.9-7.6-2.9s-5.8,1.5-7.6,2.9c-1.8,1.4-3.5,2.7-7,2.7s-5.2-1.3-7-2.7
					c-1.9-1.4-3.8-2.9-7.6-2.9s-5.8,1.5-7.6,2.9c-1.8,1.4-3.5,2.7-7,2.7s-5.2-1.3-7-2.7c-1.9-1.4-3.8-2.9-7.6-2.9s-5.8,1.5-7.6,2.9
					c-1.8,1.4-3.5,2.7-7,2.7s-5.2-1.3-7-2.7c-1.9-1.4-3.8-2.9-7.6-2.9s-5.8,1.5-7.6,2.9c-1.8,1.4-3.5,2.7-7,2.7s-5.2-1.3-7-2.7
					c-1.9-1.4-3.8-2.9-7.6-2.9s-5.8,1.5-7.6,2.9c-1.8,1.4-3.5,2.7-7,2.7s-5.2-1.3-7-2.7c-1.9-1.4-3.8-2.9-7.6-2.9
					c-3.8,0-5.8,1.5-7.6,2.9c-1.8,1.4-3.5,2.7-7,2.7s-5.2-1.3-7-2.7c-2.9-1.4-4.8-2.9-8.6-2.9s-5.8,1.5-7.6,2.9
					c-1.8,1.4-3.5,2.7-7,2.7s-5.2-1.3-7-2.7c-2-1.4-3.9-2.9-7.7-2.9s-5.8,1.5-7.6,2.9S32.9-7,29.4-7s-5.2-1.3-7-2.7
					c-1.9-1.4-3.8-2.9-7.6-2.9S9-11.1,7.2-9.7C5.4-8.3,3.7-7,0.2-7v1C4-6,6-7.5,7.8-8.9s3.5-2.7,7-2.7s5.2,1.3,7,2.7
					C23.7-7.5,25.6-6,29.4-6s5.8-1.5,7.6-2.9s3.5-2.7,7-2.7s5.2,1.3,7,2.7C52.9-7.5,54.8-6,58.6-6s5.8-1.5,7.6-2.9
					c1.8-1.4,3.5-2.7,7-2.7s5.2,1.3,7,2.7C82.1-7.5,84-6,87.8-6c3.8,0,5.8-1.5,7.6-2.9c1.8-1.4,3.5-2.7,7-2.7s5.2,1.3,7,2.7
					c1.9,1.4,3.8,2.9,7.6,2.9c3.8,0,5.8-1.5,7.6-2.9c1.8-1.4,3.5-2.7,7-2.7s5.2,1.3,7,2.7c1.9,1.4,3.8,2.9,7.6,2.9s5.8-1.5,7.6-2.9
					s3.5-2.7,7-2.7s5.2,1.3,7,2.7c1.9,1.4,3.8,2.9,7.6,2.9s5.8-1.5,7.6-2.9s3.5-2.7,7-2.7s5.2,1.3,7,2.7c1.9,1.4,3.8,2.9,7.6,2.9
					s5.8-1.5,7.6-2.9s3.5-2.7,7-2.7s5.2,1.3,7,2.7c1.9,1.4,3.8,2.9,7.6,2.9s5.8-1.5,7.6-2.9s3.5-2.7,7-2.7s5.2,1.3,7,2.7
					c1.9,1.4,3.8,2.9,7.6,2.9s5.8-1.5,7.6-2.9c1.8-1.4,3.5-2.7,7-2.7s5.2,1.3,7,2.7c1.9,1.4,3.8,2.9,7.6,2.9c3.8,0,5.8-1.5,7.6-2.9
					c1.8-1.4,3.5-2.7,7-2.7s5.2,1.3,7,2.7c1.9,1.4,3.8,2.9,7.6,2.9s5.8-1.5,7.6-2.9c1.8-1.4,3.5-2.7,7-2.7v-1H337.1z"/>
			</g>
			<g class="st1">
				<path class="st2" d="M337.1-6.6c-3.8,0-5.8,1.5-7.6,2.9c-1.8,1.4-3.5,2.7-7,2.7s-5.2-1.3-7-2.7c-1.9-1.4-3.8-2.9-7.6-2.9
					c-3.8,0-5.8,1.5-7.6,2.9c-1.8,1.4-3.5,2.7-7,2.7s-5.2-1.3-7-2.7c-1.9-1.4-3.8-2.9-7.6-2.9c-3.8,0-5.8,1.5-7.6,2.9
					c-1.8,1.4-3.5,2.7-7,2.7s-5.2-1.3-7-2.7c-1.9-1.4-3.8-2.9-7.6-2.9s-5.8,1.5-7.6,2.9s-3.5,2.7-7,2.7s-5.2-1.3-7-2.7
					c-1.9-1.4-3.8-2.9-7.6-2.9s-5.8,1.5-7.6,2.9s-3.5,2.7-7,2.7s-5.2-1.3-7-2.7c-1.9-1.4-3.8-2.9-7.6-2.9s-5.8,1.5-7.6,2.9
					S180-1,176.5-1s-5.2-1.3-7-2.7c-1.9-1.4-3.8-2.9-7.6-2.9s-5.8,1.5-7.6,2.9s-3.5,2.7-7,2.7s-5.2-1.3-7-2.7
					c-1.9-1.4-3.8-2.9-7.6-2.9s-5.8,1.5-7.6,2.9c-1.8,1.4-3.5,2.7-7,2.7s-5.2-1.3-7-2.7c-1.9-1.4-3.8-2.9-7.6-2.9
					c-3.8,0-5.8,1.5-7.6,2.9c-1.8,1.4-3.5,2.7-7,2.7s-5.2-1.3-7-2.7c-2.9-1.4-4.8-2.9-8.6-2.9s-5.8,1.5-7.6,2.9
					c-1.8,1.4-3.5,2.7-7,2.7s-5.2-1.3-7-2.7c-2-1.4-3.9-2.9-7.7-2.9s-5.8,1.5-7.6,2.9S32.9-1,29.4-1s-5.2-1.3-7-2.7
					c-1.9-1.4-3.8-2.9-7.6-2.9S9-5.1,7.2-3.7S3.7-1,0.2-1v1C4,0,6-1.5,7.8-2.9s3.5-2.7,7-2.7s5.2,1.3,7,2.7C23.7-1.5,25.6,0,29.4,0
					s5.8-1.5,7.6-2.9s3.5-2.7,7-2.7s5.2,1.3,7,2.7C52.9-1.5,54.8,0,58.6,0s5.8-1.5,7.6-2.9c1.8-1.4,3.5-2.7,7-2.7s5.2,1.3,7,2.7
					C82.1-1.5,84,0,87.8,0c3.8,0,5.8-1.5,7.6-2.9c1.8-1.4,3.5-2.7,7-2.7s5.2,1.3,7,2.7c1.9,1.4,3.8,2.9,7.6,2.9
					c3.8,0,5.8-1.5,7.6-2.9c1.8-1.4,3.5-2.7,7-2.7s5.2,1.3,7,2.7c1.9,1.4,3.8,2.9,7.6,2.9s5.8-1.5,7.6-2.9s3.5-2.7,7-2.7
					s5.2,1.3,7,2.7c1.9,1.4,3.8,2.9,7.6,2.9s5.8-1.5,7.6-2.9s3.5-2.7,7-2.7s5.2,1.3,7,2.7c1.9,1.4,3.8,2.9,7.6,2.9s5.8-1.5,7.6-2.9
					s3.5-2.7,7-2.7s5.2,1.3,7,2.7c1.9,1.4,3.8,2.9,7.6,2.9s5.8-1.5,7.6-2.9s3.5-2.7,7-2.7s5.2,1.3,7,2.7c1.9,1.4,3.8,2.9,7.6,2.9
					s5.8-1.5,7.6-2.9c1.8-1.4,3.5-2.7,7-2.7s5.2,1.3,7,2.7c1.9,1.4,3.8,2.9,7.6,2.9c3.8,0,5.8-1.5,7.6-2.9c1.8-1.4,3.5-2.7,7-2.7
					s5.2,1.3,7,2.7c1.9,1.4,3.8,2.9,7.6,2.9s5.8-1.5,7.6-2.9c1.8-1.4,3.5-2.7,7-2.7v-1H337.1z"/>
			</g>
		</g>
	</g>
</pattern>
<circle class="st3" cx="6" cy="24.2" r="6"/>
<circle class="st4" cx="16.5" cy="18" r="9.3"/>
<circle class="st5" cx="25.8" cy="3.1" r="3"/>
<pattern  id="SVGID_2_" xlink:href="#SVGID_1_" patternTransform="matrix(0.2866 0 0 0.2866 -11551.8477 4529.4375)">
</pattern>
<circle class="st6" cx="27.9" cy="89.2" r="10.8"/>
<ellipse class="st4" cx="18.8" cy="75.6" rx="7.4" ry="7"/>
</svg>
