<?xml version="1.0" encoding="utf-8"?>
<!-- Generator: Adobe Illustrator 20.1.0, SVG Export Plug-In . SVG Version: 6.00 Build 0)  -->
<svg version="1.1" xmlns="http://www.w3.org/2000/svg" xmlns:xlink="http://www.w3.org/1999/xlink" x="0px" y="0px"
	 viewBox="0 0 1200 211.1" enable-background="new 0 0 1200 211.1" xml:space="preserve">
<g id="Layer_1">
	<path opacity="0.25" fill="#BE1E2D" d="M829.7,94.8c-116.2,15.3-148.5-3.2-169.7-16c-21.2-12.8-16.2-7.8-42.4,9.1
		s-168.7-5.6-193.9-12.7c-25.3-7.1-99,8.5-120.2,12.7c-21.2,4.2-159.6,17.2-190.9-9.1C81.2,52.5,0,87.9,0,87.9v16v1.2v20.6
		c22.6,27.2,254.2,10.7,370.3-8.8s148.5,4.1,169.7,20.4s16.2,9.9,42.4-11.6s168.7,7.1,193.9,16.1c25.3,9,99-10.8,120.2-16.1
		c21.2-5.3,159.6-21.8,190.9,11.6c31.3,33.4,112.5-11.6,112.5-11.6v-20.6v-1.2v-16C1177.4,66.5,945.8,79.5,829.7,94.8z"/>
</g>
<g id="Layer_3">
	<path opacity="0.25" fill="#BE1E2D" d="M1116.5,32.4C1080.2-1.4,988.2,37.9,957,84.6c-31.3,46.7-172.8-28.8-218.2-57.4
		C693.3-1.2,660,43.8,616.5,73.2C573.1,102.6,471.1,58,444.8,39.1c-26.3-18.9-57.6-41.3-118.2,17.4C266,115.3,180.2,54.4,161,32.4
		c-19.2-22-56.6-11.1-73.7,12.6C70.1,68.6,0,73.2,0,73.2V101v7.8v27.8c0,0,47.1,6.9,83.5,40.7s128.3-5.5,159.5-52.2
		s172.8,28.8,218.2,57.4c45.4,28.5,78.8-16.5,122.2-45.9c43.4-29.4,145.5,15.2,171.7,34.1c26.3,18.9,57.6,41.3,118.2-17.4
		s146.5,2.1,165.7,24.1s56.6,11.1,73.7-12.6s87.2-28.2,87.2-28.2v-27.8V101V73.2C1200,73.2,1152.9,66.3,1116.5,32.4z"/>
</g>
<g id="Layer_2">
	<path opacity="0.25" fill="#BE1E2D" d="M1035.7,65c-57.6-13.1-110.2,14-190.9,25.6C764.1,102.1,710.5,53,680.2,74.5
		c-30.3,21.4-125.3,29.5-175.8,5.8c-50.5-23.7-108.1-19.2-177.8,9.4S139.8,88.8,101.4,65C63,41.2,0,96.8,0,96.8v8.9v4.6v18.2
		c0,0,106.7,5.5,164.3,16.9s110.2-12.3,190.9-22.4s134.3,32.9,164.6,14.1c30.3-18.8,125.3-25.8,175.8-5.1
		c50.5,20.8,108.1,16.8,177.8-8.3s186.9,0.8,225.3,21.6s101.4-27.9,101.4-27.9v-7.2v-4.6V84.3C1200,84.3,1093.3,78,1035.7,65z"/>
</g>
</svg>
